<?xml version="1.0" encoding="utf-8"?>
<!-- Generator: Adobe Illustrator 13.0.2, SVG Export Plug-In  -->
<!DOCTYPE svg PUBLIC "-//W3C//DTD SVG 1.1 Tiny//EN" "http://www.w3.org/Graphics/SVG/1.1/DTD/svg11-tiny.dtd" [
	<!ENTITY ns_flows "http://ns.adobe.com/Flows/1.0/">
]>
<svg version="1.1" baseProfile="tiny"
	 xmlns="http://www.w3.org/2000/svg" xmlns:xlink="http://www.w3.org/1999/xlink" xmlns:a="http://ns.adobe.com/AdobeSVGViewerExtensions/3.0/"
	 x="0px" y="0px" width="178px" height="212px" viewBox="-0.071 -0.209 178 212" xml:space="preserve">
<defs>
</defs>
<path d="M1.751,67.51c0.724-5.503,4.721-9.931,7.844-14.763c7.673-10.052,15.199-21.454,24.125-30.423
	c0.362-0.826,1.119-1.397,1.545-1.993c2.382-0.832,4.384-2.999,6.698-4.108C54.269,9.777,66.968,2.929,80.439,0.861
	c2.031,0.79,3.002-1.348,5.022-0.697c10.975-0.898,22.132,1.996,32.337,5.992c3.945,1.919,7.852,3.935,11.917,5.562
	c6.138,2.98,10.307,8.594,14.306,13.797c4.018,6.752,7.055,13.576,10.619,20.55c3.457,1.672,5.76,4.228,5.889,7.931
	c1.518,6.606,1.215,14.004,3.543,20.785l3.529,5.191c0.428,0.062,0.435,0.813,0.783,1.07c1.42,0.788,1.045,2.742,1.75,4.005
	c1.312,4.461,2.525,8.835,4.979,12.836c-0.128,2.734-0.969,5.38-1.2,7.98c-0.642,1.503,1.014,2.932,1.677,4.293
	c2.024,1.354,1.593,4.44,2.034,6.615c0.107,1.448-0.519,2.528-1.521,3.589c-0.332,0.587,0.43,1.377-0.327,1.949
	c0.217,1.676-1.646,1.905-2.481,2.671c0.186,1.256-0.333,2.515-1.22,3.238c-0.409,0.17-0.977,0.117-1.22,0.652
	c0.086,3.095-3.534,2.42-5.111,3.992c-1.221-0.005-1.922,1.972-3.105,2.481c-0.333-0.068-0.955,1.058-1.425,0.434
	c-1.323,0.52-2.839,0.35-4.275-0.016c-1.899,0.374-4.083,1.333-6.185,0.219c-2.17-1.392-2.906-4.391-5.207-5.021l-0.221,0.205
	c0.955,1.48,0.861,3.412,1.812,4.846c2.586,7.093,6.746,14.492,12.85,19.588c1.234,0.803,2.764,1.16,3.43,2.567
	c0.757-0.572,1.743,0.06,2.349-0.642c0.944-0.586,2.104,0.503,2.529-0.75c0.685-0.284,0.386,0.771,1.033,0.63
	c1.08-0.644,1.646,0.678,2.255,1.291c0.319,1.151,1.049,2.131,1.369,3.281c0.619,3.338-1.447,6.542-1.648,9.563
	c0.596-0.185,0.197,0.784,0.635,0.987l0.754,1.308l-0.232,0.016c-0.369,1.39-1.043,3.083-0.787,4.662
	c-0.57-0.099-0.1,0.571-0.285,0.585c-2.045,6.727,2.64,12.96,0.426,19.934c-1.1,2.289-3.623,3.742-4.478,6.2
	c-0.438-0.203-0.667,0.52-1.08,0.643c-2.388,1.396-4.851,1.766-7.891,1.94c-1.482,0.296-3.353-0.224-4.666,0.437l-0.251-0.218
	c-5.189,0.992-9.877,1.758-14.975,3.354c-6.271,0.318-11.706,0.529-17.547-0.97c-11.863-2.277-24.469-6.334-35.227-12.732
	c-2.749-0.974-5.092-2.822-8.089-2.696c-2.022-1.309-4.384-0.853-6.233-2.362c-3.468-1.812-8.13-3.256-11.094-6.515l0.203-0.438
	c-1.19-4.705-1.877-10.245-3.328-14.647c-1.081,0.642-2.212,0.584-3.591,0.356c-5.933-0.834-11.529-3.478-16.847-5.531
	c-0.321-0.539-1.287-0.892-1.788-1.325c-6.939-6.866-14.18-14.65-19.867-23.019c-4.155-8.62-5.698-18.139-9.403-27.027
	c-1.538-4.961-3.464-10.081-4.195-15.57c-1.275-3.946-1.083-8.377-1.398-12.676C-0.209,79.867,0.35,73.39,1.751,67.51z"/>
<path fill="#FFFFFF" d="M3.071,70.137c0.663-2.491,0.601-5.258,2.042-7.383c1.076-1.348,1.584-2.748,2.75-4.148
	c-3.304,7.477-6.239,16.147-2.936,24.69c0.421-0.031,0.574-0.512,0.643-0.846C2.399,69.951,8.408,57.062,16.882,47.704
	c0.238,0.029,0.321-0.118,0.451-0.269c-2.083,3.629-3.431,7.674-4.802,11.392c0.11,0.228,0.224,0.5,0.472,0.67
	c1.659-1.719,1.711-4.213,2.836-6.174c2.746-6.12,6.126-12.568,12.239-15.694c-2.057,5.271-4.472,9.488-7.401,14.4
	c0.773-0.338,1.787-1.259,2.246-2.044c1.249-1.547,1.854-2.907,2.809-4.622l0.1,0.087c6.302-11.454,18.028-18.749,29.797-22.899
	c0.447-0.315,1.025-0.123,1.304-0.8c-8.459,1.229-15.384,6.106-22.589,10.345l-0.251-0.216c3.031-3.511,6.399-5.637,9.769-8.373
	l-0.251-0.217c-5.82,2.635-10.804,7.697-14.878,12.364l-2.788,1.708c0.238-1.238,1.298-2.162,1.863-3.426
	c-0.714-0.135-1.206,0.841-1.787,1.26c-1.602,1.855-3.615,3.882-4.208,6.039c-1.798,2.387-3.538,4.3-5.771,5.872l-0.219,0.205
	c8.646-10.218,15.955-23.954,28.158-29.875C53.789,12.209,64.254,6.933,74.581,4.25c2.002-0.24,4.697-1.283,6.577-1.28
	c4.223-0.075,8.102-1.628,12.36-0.577c6.474,0.512,12.718,1.746,19.001,4.151l0.083-0.147c2.412,0.856,4.684,1.724,6.658,3.035
	l0.131-0.15c0.962,0.306,2.309,1.381,3.28,1.826c4.193,2.089,9.257,3.222,12.416,6.606c3.034,2.926,5.573,6.169,7.937,9.566
	c0.556,1.18,1.546,2.517,1.963,3.708c2.256,3.874,4.03,8.208,6.067,12.286c-0.835-0.503-1.226-1.977-2.216-1.388
	c0.809,2.713,3.447,3.458,5.342,5.574c0.299-0.397,0.527,0.149,0.811,0.176c2.447,1.981,2.789,4.729,3.462,7.497
	c1.491,6.232,1.194,13.725,3.528,19.942c1.012,2.274,2.979,4.104,4.174,6.317c-2.336-1.755-2.953-5.045-5.125-6.482
	c-0.163,0.341-0.531-0.197-0.396,0.357c1.049,2.131,2.113,4.496,3.173,6.768c0.673,0.843,1.354,2.438,1.501,3.178
	c-1.195-0.287-0.83-1.724-1.77-2.36c-0.191-0.689,0.324-1.339-0.544-1.65c-0.571-0.1-0.71,0.568-0.87,0.956l-0.128,2.733
	c-0.466-0.576-0.544-1.65-1.565-1.482c-0.711,1.18,0.669,2.064,0.721,3.424c-1.01,0.309-1.088,1.818-1.904,2.206
	c-1.154,0.931,0.635,2.256,0.205,2.804c-0.891-1.907-1.025-4.387-2.134-6.044c-0.441-2.176-0.147-3.277-0.247-5.29
	c1.199-0.935,1.396,3.655,2.291,0.489l0.028-0.895c0.715,0.135,1.081,0.015,1.638,0.537l1.055-0.969
	c-0.564-0.663-1.144-1.514-2.121-1.396c-1.301-1.079-3.279-1.78-4.691-2.476c-1.318-0.044-0.811-1.442-1.297-2.3
	c0.445,0.296,0.799-0.012,1.098-0.409c0.217-2.177,2.514-3.52,2.393-5.813c0.137-1.982-0.08-3.657,0.922-5.375
	c-0.129-3.044-1.902-5.451-1.388-8.684c-2.382-3.02-6.905-2.548-9.313-5.284l0.035-0.8c-1.281-1.457-2.095-2.947-3.686-4.146
	c0.447-0.314,1.506-1.238,0.571-1.827c-0.265-0.403,0.417-1.346-0.567-1.32l-0.017-0.233c0.837-0.108,2.44,0.619,2.763-0.767
	c0.312-0.869-0.721-1.497-0.592-2.306l-0.233,0.018c-1.013-2.274-2.495-4.562-3.851-6.389c-0.206-0.878-1.422-1.446-1.207-2.354
	c-2.11-4.449-4.732-7.545-8.724-10.071c-1.452,0.059-2.71-1.07-4.065-1.629c-0.412-1.145-1.66-0.864-2.489-1.273
	c-2.772-0.643-4.491-2.959-7.196-3.325c-3.881-1.688-7.527-4.005-11.631-4.879c-0.065,1.039-1.568,0.396-2.008,0.805
	c-0.695,0.146-1.801-0.196-2.279,0.966c-0.414,0.125-0.475-0.717-0.805-0.082C100.854,7.633,99.844,8.6,98.875,8.2
	c-0.177,0.154-0.21,0.345-0.192,0.578c3.183,1.13,5.72,1.132,8.978,0.705c1.198,0.335,2.786,0.219,3.937,1.167l0.912,0.263
	c0.344-0.447-0.241-0.733-0.409-1.098c2.81,1.156,5.56,2.787,8.272,3.903l1.104,0.953c-1.414,0.573-0.262-1.015-1.438-1.021
	c-2.199,0.771-4.161-1.011-6.197-1.238c-0.775-0.318-1.867-0.474-2.739-0.833c-3.302-0.837-6.907-0.667-10.288,0.003
	c0.074,0.37,0.699,0.56,0.936,0.589c2.9,1.103,5.541-0.03,7.957,0.873l0.258,0.311c0.743-0.102,1.949,0.327,2.638,0.746
	c1.681,0.487,3.547,0.962,5.142,2.207c2.895,0.398,7.072-0.284,8.984,2.725c0.09-0.054,0.126-0.198,0.223-0.158l0.105,0.134
	c-0.919,0.303-2.182-0.263-3.057-0.669l-0.453,0.222c-3.361-0.976-6.998-0.614-9.961-1.948c-1.523-0.264-2.192-1.061-3.723-1.419
	l0.217-0.25c-0.391-0.206-0.842-0.597-1.238-0.238l0.592,0.38c-0.723-0.229-0.848,0.625-1.408,0.667
	c0.26,0.967,1.331,0.842,1.969,1.218c2.575,1.174,4.982,2.594,7.291,3.976c2.189-0.255,4.318,1.233,6.752,1.103
	c0.971,0.445,2.834,0.215,3.58,1.429l0.131-0.151l2.693,1.494l-2.164-0.029l-0.01-0.141c-6.066-0.729-12.564-2.226-17.951-5.214
	l-0.259-0.31c-3.143,0.7-4.854-0.866-7.732-1.031c-0.565,0.605-1.509-0.077-1.991,0.381c-1.242,0.373-2.523,0.185-3.763-0.053
	c-1.892,0.468-4.308,0.833-5.915,1.983c0.068,0.277,0.325,0.588,0.612,0.66c3.356-0.998,7.361-1.479,10.644-0.922
	c1.025,0.536,1.18-1.213,2.229-0.35c0.555,0.522,0.965,0.351,1.598,0.634c-2.537-0.002-5.002-0.291-7.373,0.682
	c-0.227,0.11-0.072,0.287-0.062,0.428c1.105,0.341,2.607,0.325,3.994,0.646l1.998-0.286c0.621,0.142,1.226,0.051,2.027,0.086
	c2.319-0.405,4.396,0.383,6.203,1.33c4.646,3.137,9.773,5.156,14.791,6.949c0.928-0.162,0.565-1.263,0.577-1.733
	c0.995,0.115,2.084,0.223,2.753,1.02c1.953,0.374,3.268,2.298,4.883,3.166l-0.22,0.204c-0.912-0.262-1.636-1.148-2.659-1.027
	c0.27,1.108,1.796,2.077,2.793,2.85c0.591,0.379,1.282,0.845,1.711,1.565c-0.197-0.126-0.478-0.105-0.711-0.089
	c-0.422,0.643,0.489,0.904,0.576,1.461c-1.168,0.086-2.079-2.103-2.915-2.604l-0.22,0.204c1.099,2.174,3.236,4.414,5.288,5.484
	c-0.034,0.191-1.106-0.342-1.237,0.42c2.559,0.939,3.863,2.723,5.945,4.214c-1.959-1.077-4.87-3.636-7.361-3.642
	c-0.453,0.222-0.049,0.615,0.152,0.788c0.291,0.12,0.582,0.239,0.836,0.503c-0.24-0.077-0.965,0.306-1.379-0.228l-0.314,0.21
	c-0.635-0.987-1.473-2.146-2.541-2.633l-0.3,0.398c1.032,2.556,2.482,5.033,4.466,7.096c0.554-0.135,1.643-0.027,2.15,0.5
	l0.361,0.442c-1.054,0.359-1.923,1.315-2.768,1.988c0.967,0.352,1.809-0.979,2.75-0.953c2.669-0.759,5.988-1.612,7.853,0.74
	c0.854,1.395,1.913,2.396,1.622,4.203c-0.996,2.422-1.111,4.686-0.906,7.488c0.146,0.084,0.304,0.307,0.491,0.293l0.086-0.101
	c1.364,3.236,1.45,6.33,2.942,9.368c0.587,2.259,1.309,4.414,1.761,6.729c0.528,2.733,2.002,4.88,1.877,7.661
	c-2.065,3.862-0.467,7.738,2.059,10.795c1.452,1.866,3.358,3.512,5.493,4.436c0.593,1.037-0.844,2.6,0.99,2.605l-1.384,2.921
	c-0.968-1.01-1.95-2.254-3.337-2.575c-2.114,0.625-4.053-0.172-5.781,1.223c-0.332,1.246-0.76,2.451-0.607,3.896l-0.514,0.695
	c-0.92-1.014-2.51-1.555-2.716-3.089c-0.665-0.751-1.483-1.02-2.339-1.145c-1.352,0.146-2.666,0.806-3.428,1.941l0.088,3.142
	c-0.555,0.746-1.107-0.389-1.792-0.104c-0.833-1.113-1.919-1.832-3.142-2.494c-1.632,0.166-2.986,0.924-4.229,1.907
	c-0.33-0.634-1.144-0.855-1.695-1.333c-1.234-1.458-2.916-2.604-4.09-3.88c0.635,2.254,2.465,4.14,4.453,5.64
	c0.273,1.154-0.241,3.117,0.842,3.79l0.457-0.175c0.125,0.414-0.072,0.945-0.492,0.977c-1.771-0.435-1.801-2.781-3.737-2.922
	c-1.392,0.243-3.181,0.187-3.084,2.152l-0.058,1.132c-0.341-0.163-0.911-0.262-0.965,0.306c-0.021,0.33,0.202,0.831-0.309,0.915
	c-0.998-0.161-1.965-1.171-3.213-0.893c-2.379,0.223-1.792,3.749-4.314,3.935l0.023,0.326c-1.193-0.898-2.521-1.693-4.025-1.067
	c-1.102,0.975-2.547,1.784-2.33,3.46l-1.031,1.297c-0.051-0.701-0.053-1.359-0.604-1.835l-0.402,0.922
	c-0.325-1.244-1.874-2.494-0.364-3.684l0.785-0.199c0.08,0.464,0.018,0.892-0.235,1.286c0.21,0.312,0.538,0.289,0.755,0.038
	l0.419-0.688c-0.241-2.003,0-3.853-0.738-5.583c0.093-0.664,0.713-1.18,0.421-1.957c-1.464-0.738-1.389,1.559-1.879,1.923
	c0.864-1.66-1.348-1.076-1.864-2.353c-1.371-1.403-1.911-3.009-2.595-4.649c-0.398,1.626,0.074,2.955,0.871,4.212
	c0.852,1.347,3.079,2.264,2.962,3.869c0.101,0.087,0.29,0.12,0.258,0.311c-1.649-0.068-2.725-1.914-3.501-2.892
	c-1.312-3.803-2.688-7.836-5.641-10.955c-0.144-0.036-0.224,0.158-0.313,0.212c1.985,3.377,3.931,6.852,4.956,10.581
	c-3.225-1.688-2.688-5.909-5.119-8.314c-2.392-2.503-5.08-5.218-8.518-5.343l-0.217,0.251c1.028,0.582,2.001,1.028,3.16,1.46
	c3.398,2.146,6.355,5.312,7.65,8.882l-0.352-0.304c-0.436,1.112,0.438,2.129,1.11,2.972c0.984,1.244,2.624,1.171,3.423,2.475
	c0.763,0.79,1.793,2.029,3.191,1.88c0.723,2.155-2.654,3.53-0.82,5.463c0.027,0.374-0.153,0.481-0.427,0.595l-0.233,0.018
	c-0.253,0.394,0.197,0.783,0.535,0.899c0.277-0.066,0.661,0.047,0.877-0.205c0.232,0.594,0.598,1.084,1.146,1.514l0.802,0.035
	c-0.081,0.194-0.305,0.351-0.193,0.577c-1.737-0.623-3.338-1.962-5.316-1.395c-1.023,0.779-2.314,1.108-3.328,2.029
	c-1.463-0.081-0.053-2.017-1.094-2.739c0.053-0.567,0.219-1.519-0.373-1.898c-0.604,0.749-0.188,1.94-0.683,2.868
	c-0.168,0.905-1.817,1.496-0.63,2.302l0.104,0.134c-0.527-0.15-0.483,0.457-0.699,0.708c-0.823-0.973-1.407-2.527-2.605-2.862
	c-0.033-1.735,0.25-3.636,1.071-5.246c0.17-0.247-0.354-0.35-0.042-0.561c0.694,1.123,1.2,2.261,2.676,2.528
	c0.683-0.942-0.677-1.547-0.734-2.342c0.358-0.872-0.264-2.94,1.142-2.996c0.917,0.966,3.237,1.219,2.489,3.2
	c-0.062,0.427-0.502,0.835-0.145,1.231c0.871-0.299,1.069-1.44,1.682-2.049c0.41-0.829-1.129-0.669-0.823-1.631
	c-1.828-1.229-2.384-3.678-3.448-5.385l-2.204-2.517c0.929,0.496,2.241,1.104,3.173,0.332c-0.777-0.977-2.155-0.547-3.028-1.563
	c-0.381-0.065-0.635-0.329-0.888,0.064l0.392,0.864c-1.532-0.404-3.384-3.228-5.519-2.884c-2.59-1.36-5.497-0.631-8.611-0.825
	c-0.578-0.192-1.365-0.041-1.658,0.45c-0.871,0.299-1.789,0.601-2.659,0.899c-0.591-0.38-1.448,0.105-2.05-0.413
	c-2.237-0.4-4.492,0.892-6.832,0.359c-3.111-0.148-6.093-2.372-7.147-5.207c-0.583,0.37-0.228,1.379-0.093,1.933
	c1.416,2.01,3.584,3.401,5.709,4.185l-0.888,0.065l-0.006-0.094c-1.786-0.01-3.696-0.434-5.658-0.289
	c1.194-0.37,0.994-1.812,0.605-2.629c-1.558-1.389-1.751-3.395-1.648-5.188c-0.385-0.771,0.18-2.033-0.808-2.055
	c-0.47,1.914-0.266,4.06,0.191,5.811c0.565,0.664,0.053,1.358,0.618,2.022c-0.039,0.754-0.242,1.192-0.097,1.886l0.822,0.316
	c-3.064-0.152-5.253,0.76-7.72,2.351c-0.498-0.387-0.443,0.36-0.917,0.302c-3.461,0.207-7.964-3.55-9.678,1.272
	c0.332,0.681,0.651-0.094,0.971-0.212c0.214,0.36-0.212,0.955-0.322,1.386c-0.64,2.161,1.203,4.234-0.938,5.801l-0.285,0.584
	c-0.258-0.31-0.361,0.215-0.551,0.182c0.04-0.097-0.104-0.134-0.157-0.224c-0.42,0.031-0.009,0.517-0.279,0.679
	c-0.286,0.585-1.277,0.516-1.367,1.227l-0.147-0.083l-0.689,0.85c-0.068-0.935,0.656-1.315,1.068-2.098
	c-1.747-3.96-0.805-9.055,2.157-12.231c-0.412-0.486-0.888,0.064-1.355,0.099c-2.812,2.648-3.543,6.133-3.344,9.5
	c-0.555-0.523,0.004-1.222-0.684-1.642c0.158-1.045-0.59-1.647-0.882-2.425c-0.799,1.28-0.039,2.681,0.211,4.166
	c-1.162-1.748-1.677-4.293-1.323-5.87c-0.037,0.144,0.154,0.177,0.211,0.313c0.623-0.468,0.498-1.54,0.77-2.312
	c0.139-0.667-0.423-1.284-0.521-1.981c0.564-1.92,2.301-3.223,3.586-4.913c5.088-4.931,10.719-8.866,16.274-13.83
	c-0.001-0.657,1.106-0.926,0.764-1.747c0.313-0.211,0.209-1.002,0.455-1.489L57,84.225c0.191,2.617-0.485,4.921-0.822,7.389
	c-0.018,1.035-0.593,2.157-0.104,3.061c1.412-1.889,0.753-4.471,1.617-6.789c0.69-2.117,0.372-4.536,1.353-6.534
	c0.398-1.627,0.217-3.445-0.37-5.047c0.212-2.881-1.284-6.624,0.183-9.691c-0.737-1.73,1.864-2.767,2.516-4.13
	c1.267-2.583,1.723-5.34,3.04-7.88c0.077-3.436,0.384-6.934-1.2-9.965c-0.671-0.186-0.783-1.07-1.538-1.109
	c-0.508-0.525-1.224-1.319-1.519-2.143c-0.957-0.869-2.432-1.138-3.656-0.531l-0.606,0.702c0.961,0.305,1.861-0.889,2.813-0.065
	c-0.759,1.184,2.043,2.246,0.143,3.231l0.455,0.436c-0.424,1.911-1.235,3.661-1.849,5.538c1.921-0.704,2.351-3.179,3.019-4.966
	l0.245-1.146c1.344,2.956-0.776,6.07-1.359,9.025c-0.531,1.73-1.563,3.027-2.141,4.761l0.15,0.13
	c1.073-0.736,2.458-1.072,3.217-2.256c-1.096,2.993-3.34,6.353-5.09,9.393l0.474,0.059c-0.786,0.81-0.977,2.046-0.892,3.214
	c-1.934,1.175-2.778,3.116-4.146,4.954l0.351,0.304c1.353-1.415,2.438-2.622,3.794-3.989c0.164,3.511,1.042,5.89-1.986,8.789
	c-0.426,0.595-0.418,1.347-0.988,1.904l0.251,0.217l3.09-3.984c0.517,1.277-0.133,2.029,0.006,3.288
	c-2.636,2.495-4.876,5.9-5.844,9.354c-2.585,2.538-5.993,4.762-8.729,7.17c1.839-3.752,5.125-6.342,7.753-9.588
	c-3.955,1.792-7.609,6.429-9.714,10.389c-0.144,1.89-1.938,2.397-2.633,3.811c0.308-3.5,2.134-6.78,4.115-9.885
	c0.961-1.621,2.731-3.113,3.603-4.681l-0.247-0.17c-5.124,3.805-8.531,9.881-9.053,16.214c-0.468,1.303-0.773,2.264-1.335,3.574
	c-1.034-8.991,3.129-17.564,9.109-23.78c-1.165,0.132-2.121,1.188-3.037,2.148c-4.065,4.149-5.367,9.459-8.179,14.035
	c-2.538,5.118-2.663,11.751-1.206,17.517c-0.596,0.842-1.303-0.469-1.905,0.279c0.655,0.611,2.074,0.741,1.268,1.928
	c0.428,0.721,1.299,0.421,1.775-0.131c0.399-0.968,0.704-1.93,1.511-2.458c0.041,0.56,0.712,0.745,0.807,1.396
	c-0.061,1.085,0.98,2.465,0.003,3.241c-0.584-0.286-1.305,0.143-1.397,0.807c1.117,1.14,2.488,2.543,4.172,1.808
	c0.332,0.681,0.95,1.435,1.698,1.379c1.106-0.926-0.39-3.399,1.302-3.384c-0.304,1.621,0.279,3.175-0.979,4.583
	c-1.394-1.073-3.236-2.488-5.135-2.114c-1.039-0.722-1.916-1.785-2.145-2.99c-0.254-0.263-0.338-0.774-0.852-0.735
	c-0.506,0.788,0.147,2.01,0.338,2.699c0.859,0.83,1.627,2.323,3.009,2.599c0.613-0.609,1.206,0.428,1.824,0.523
	c1.475,1.536,3.59,2.838,3.448,5.385c1.244,0.942,2.194,2.376,2.455,4.002c-1.123-0.576-2.487-1.886-3.931-1.075
	c-0.346,0.4-1.014,0.263-1.296,0.894c0.326,1.244-0.784,2.124,0.013,3.381c1.401,3.092,3.57,6.41,6.24,8.234
	c0.158,0.881-0.211,1.612-0.483,2.384c-0.374,1.953,0.125,4.266-1.364,5.737c0.102,1.402-1.989,0.428-2.583,0.659
	c-0.701,0.052-2.068,0.621-2.632,0.615c-1.409-1.916-1.506-3.882-2.274-6.034c0.781-1.514-0.845-1.911-1.352-3.049
	c-1.999-3.563-2.425-8.09-2.118-12.246c0.016-0.424-0.378-0.677-0.41-1.098c-0.579,1.076-0.507,2.058-0.572,3.096
	c-1.045-0.158-0.461,1.396-0.514,1.963c0.332,1.95-0.18,3.303-0.003,5.074c-0.097-0.04-0.137,0.057-0.18,0.107
	c-0.146,0.575,0.501,0.433,0.626,0.847c0.754,1.965,2.317,4.058,1.987,5.961c0.204,0.22,0.375,0.631,0.205,0.878
	c-0.527-0.149-0.773,0.339-1.08,0.643l0.041,0.562c-1.664-0.912-2.755-2.335-4.042-3.885c-1.453-1.867-2.337-3.682-3.883-5.541
	c-2.141-2.943-2.277-8.007-1.072-11.431c-0.385-0.771-1.328,0.473-1.723-0.438c-1.361-1.263-3.416-2.38-3.483-4.583
	c-0.976-2.418-2.782-4.636-3.131-7.475c0.297,0.213,0.825,0.361,0.853,0.735c1.306,0.516,2.037,2.152,3.189,2.491
	c1.397,1.119,2.144,2.333,3.534,3.358l0.3-0.398c-0.535-2.168-2.47-3.576-3.992-5.109c0.739,0.462,1.471,0.832,2.308,0.724
	c0.59-0.278,0.402-0.923-0.182-1.209c-2.978-1.52-6.622-3.178-8.116-6.263l0.537-0.368c-1.724-4.29-3.301-8.497-1.196-13.113
	l-0.267-0.45c-1.05,1.063-1.735,2.617-2.049,4.096c-0.488-0.245-1.081-1.283-1.176-1.934c-1.344-2.955-1.977-5.821-2.053-9.433
	l0.216-0.251c-0.855-0.782,0.443-2.287-0.47-3.207l-0.104-0.133C2.708,90.834,2.505,93.197,2.66,95.3
	c-0.971-6.835-0.773-13.754-0.398-20.829C2.568,72.898,2.667,71.67,3.071,70.137z"/>
<path fill="#FFFFFF" d="M2.677,95.533c0.406,2.978,1.323,5.869,2.566,8.737c0.498,0.388,0.739,1.12,1.451,1.21l0.32-0.118
	c0.029,1.032,0.261,2.283,0.136,3.138c0.502,0.434,0.55,1.088,0.555,1.792c-0.531-0.196-0.35,0.354-0.52,0.602
	c0.563,3.2,2.338,6.265,3.719,9.076c1.051,3.445,1.242,7.331,2.563,10.617c2.397,5.79,5.016,12.034,9.504,16.873
	c2.312,2.695,3.442,5.948,6.25,8.373l0.995,0.115c0.586,0.943,1.802,1.512,2.121,2.663c0.903,0.779,2.091,2.242,3.144,3.151
	c0.327-0.023,0.541-0.321,0.753-0.618c1.27,0.658,1.479,2.24,3.009,2.598c1.794,0.761,3.28,1.169,5.11,1.786
	c1.205,1.698,3.59,0.911,5.21,1.873c1.682-0.122,3.203,0.753,4.603,1.261c0.704-0.004,1.212,0.521,1.84,0.758
	c-1.124,0.693-2.206,0.021-3.482-0.074c-6.495-1.449-13.569-3.75-18.634-8.124l-0.023-0.327l-1.741-0.67
	c-5.27-6.521-10.687-11.854-14.836-19.114c-2.289-3.026-2.676-6.38-4.344-9.922c-2.527-10.761-7.939-20.512-9.481-31.297
	C2.943,98.521,2.732,96.938,2.677,95.533z"/>
<path d="M3.322,87.03c0.614,0.049,1.216,0.568,0.847,1.301c-0.27,0.16-1.026,0.732-1.449,0.105
	C2.776,87.916,2.875,87.345,3.322,87.03z"/>
<path d="M21.071,129.23c0.403-0.265,1.019,0.442,1.104-0.315c-0.409-1.099,0.116-2.264-1.24-2.821l-0.058-0.795
	c1.934,0.751,0.511-5.205,2.464-1.637l-0.21,0.344c-0.136,3.909,1.806,7.338,1.926,10.898c0.232,0.594-0.181,1.376-0.27,2.087
	c-1.403-0.555-0.699-2.485-1.542-3.738c-0.245-0.781-0.706-2.579-1.912-3.008l-0.951,0.492
	C20.209,130.28,19.833,128.992,21.071,129.23z"/>
<path d="M20.207,102.047c0.488,0.247,0.052,0.701,0.083,1.121l-0.677,0.379C18.913,102.988,19.178,101.465,20.207,102.047z"/>
<path d="M21.348,105.439c0.311-0.257,0.573-0.512,0.94-0.632c-0.483,2.384-0.747,5.833,0.609,8.316l-0.286,0.586
	c-1.558-1.39-1.744-3.912-1.444-6.236C21.404,106.846,21.393,106.047,21.348,105.439z"/>
<path d="M23.101,120.391c2.04,0.273,3.255,2.111,4.54,3.614c0.349-1.013-0.647-1.785-0.072-2.907
	c-0.308-0.354-0.123-1.025,0.345-1.059c0.301,0.259,1.005,0.254,1.096,0.858c-0.372,1.343-0.095,2.544,0.604,3.761
	c0.174,0.457,0.366,1.148,0.106,1.448c-0.32,0.118-0.333-0.069-0.444-0.295c0.036-0.145-0.204-0.221-0.257-0.311
	c-0.779,0.902-0.076,2.166-0.349,2.938l-0.3,0.398c-0.532-0.854-0.65-1.831-1-2.745c-0.558-1.839-2.053-3.655-3.851-4.463
	c-0.36,0.214-0.967,0.259-1.249-0.379C22.134,120.649,22.794,120.695,23.101,120.391z"/>
<polygon fill="#FFFFFF" points="30.984,113.848 30.708,114.572 30.667,114.012 "/>
<path fill="#FFFFFF" d="M32.385,98.993c-0.369,2.659-0.908,5.563-0.092,8.369c0.542,0.336,0.462,0.53,0.212,0.971
	c-0.895,1.241-1.411,2.547-1.972,3.856C30.191,107.518,30.322,102.903,32.385,98.993z"/>
<path fill="#FFFFFF" d="M37.89,135.656c1.51,0.734,2.271,2.135,3.144,3.15c0.478,0.106,1.078-0.031,1.575-0.302
	c0.451-0.269,0.266-0.866,0.672-1.083c-0.685-0.373-0.096-1.309-0.691-1.735c0.028-0.895-0.358-2.322-0.34-3.357
	c-0.009-1.408-2.227-2.186-1.478-3.508c0.39,1.474,1.09,2.69,2.053,3.654c0.654,1.878,2.033,4.031,2.377,6.167
	c1.382,3.469,2.706,6.802,4.369,10.25c0.366,1.147,0.912,2.188,1.145,3.44c-1.571-0.92-3.667-0.672-3.931-3.002
	c-0.16-1.538,0.834-2.08,0.962-3.546c-0.312-0.4-0.852-0.079-1.115,0.176c-1.243,0.983-1.468,2.409-1.412,3.814
	c0.561,1.884,1.449,3.746,2.864,5.099c-1.189-0.195-3.06,0.553-3.37-1.116c0.033-2.116-0.921-3.597-1.003-5.986
	c0.546-0.885,0.481-1.772-0.048-2.58c-0.354-0.35-0.705-0.652-1.173-0.619c-1.876-1.882-3.876-4.178-4.425-6.533
	C37.349,137.245,37.204,136.551,37.89,135.656z"/>
<path fill="#FFFFFF" d="M38.52,118.604c0.271,0.497-0.315,0.822-0.262,0.912C38.003,119.252,38.096,118.588,38.52,118.604z"/>
<polygon fill="#FFFFFF" points="33.447,33.993 32.304,35.064 33.12,34.018 "/>
<path fill="#FFFFFF" d="M41.499,123.365l0.327-0.024l-0.444,0.361C41.373,123.562,41.362,123.422,41.499,123.365z"/>
<path fill="#FFFFFF" d="M42.552,124.274c3.122-1.638,4.127,2.47,5.825,3.848c2.133,3.461,3.867,7.891,7.216,10.652
	c1.066,0.438,2.294,0.536,3.331,1.212c0.533-0.415,0.709,0.699,1.139,0.151c0.461,0.529,1.235,0.191,1.73,0.531
	c1.055,0.298,2.465,0.946,3.298,0.134c0.342-1.105,0.723-2.308,1.215-3.283c0.838-3.303,0.604-7.138,0.918-10.543
	c1.789-0.602,2.453,1.417,3.545,2.229c3.119,4.093,3.527,9.653,5,14.385c2.208,9.608,5.943,18.919,13.957,25.707
	c0.768,0.225,0.947,1.387,1.74,0.671c0.196-0.531-0.479-0.764-0.777-0.977c-2.537-2.586-5.077-5.829-6.732-9.184
	c-0.482-0.811-1.111-1.704-1.467-2.712c1.141,1.467,2.46,2.169,3.878,3.568l4.57,4.034c0.621,0.143,1.316,0.655,1.991,0.887
	c-0.716,0.476-1.165,1.401-1.05,2.333c-0.505-0.48-1.326-0.796-1.864-0.428c-0.081,0.805,1.026,0.536,1.438,1.021
	c1.383,0.933,2.15,2.427,3.314,3.562c0.134,0.554,0.833,1.114,1.021,1.758c-0.022,0.33,0.135,0.554,0.292,0.777
	c0.883-1.428-0.905-2.094-1.268-3.195l0.141-0.011c0.236-1.896-2.156-3.13-0.83-4.919c0.902,1.438,2.377,2.315,3.912,2.767
	c0.408-0.217,0.742-0.147,1.105-0.315c-0.855,1.801,1.43,2.854,1.917,4.369c0.187-0.014,0.247,0.17,0.478,0.106
	c0.412-1.439-1.166-2.451-0.748-3.798c0.725,0.276,1.553,0.685,2.371,0.296c0.516-0.648,0.475-1.208,0.233-1.942
	c-1.109-0.389-0.688,1.506-1.634,0.777l-0.732-0.369c1.014-2.188,0.785-5.319,3.111-6.899l1.256,0.472
	c-0.953,2.372-1.523,4.856-1.803,7.461c0.398,1.568,2.244,1.762,3.564,2.463c0.871,0.359,2.326,0.347,2.768,0.597
	c0.35,0.914,0.281,2.562,1.444,3.042c0.65-0.753-0.671-2.112,0.456-2.759c0.934-0.726,3.012,0.719,4.023-0.858l0.982-0.071
	c0.396,0.299-0.344,0.447-0.13,0.808c0.554,1.134,1.126,2.548,0.708,3.894l0.251,0.217c0.608-1.313,1.2-2.859,0.817-4.241
	c1.383,0.275,2.418,0.95,3.973,0.367c0.246-0.488,0.521-1.213,1.119-1.397c1.438,1.022,2.954,1.851,4.773,1.67
	c0.886-0.722,1.791-2.48,3.09-2.059c2.067,0.647,3.768,2.685,6.033,2.189c1.119-0.74,0.971-2.139,1.71-2.944
	c1.29,0.939,2.855,2.421,4.487,2.912c0.319,0.493,1.08,0.626,1.623,0.352l1.273-1.222c-0.134-0.554,0.432-1.159,0.625-1.736
	c0.559-0.699,1.188-0.463,1.805-0.367c0.449,1.001,1.302,1.737,2.191,2.329c1.201,0.382,1.863-0.842,2.22-1.76
	c0.002-0.611,0.005-1.222,0.345-1.716c0.941,0.682,1.822,1.793,2.691,2.762l-0.134,0.104c0.472,0.012,1.059,0.345,1.623,0.35
	c0.676-1.035,2.036-1.699,1.935-3.101c0.143,0.036,0.219-0.205,0.162-0.341l-0.024-0.327c0.553,1.134,1.087,2.646,2.403,3.3
	c1.656,0.16,2.464-1.637,3.082-2.809c0.949,0.775,1.069,2.411,2.467,2.872c0.529-0.461,0.863-0.392,1.139-1.116
	c1.662,0.254,0.084,2.436,1.058,3.539l-0.402,0.923c-0.458-0.484,0.318-1.434-0.534-1.512c-0.838,1.377-0.619,3.71-1.685,5.197
	c-0.949,3.076-2.276,6.132-2.226,9.37c-0.877-2.332-1.793-5.225-1.698-7.768c0.649-1.41,1.47-3.021,2.166-4.434
	c-0.871-1.627,1.382-3.577-0.37-5.047c0.771,2.198-1.201,3.471-1.289,5.498c-0.902,1.146-1.26,2.676-2.23,3.545
	c-0.297,1.056-0.078,2.777,0.498,3.581c0.18,1.161,0.451,1.658-0.269,2.744c0.631,3.478,3.259,6.009,3.836,9.396
	c-0.663,0.564,0.089,1.214-0.046,1.93c0.184,0.597,1.105,0.999,0.689,1.734c-0.299,0.397-0.789,0.762-1.186,1.12
	c-0.384-0.113-1.456-0.645-1.348,0.192c-0.137,0.058-0.197-0.127-0.342-0.162c-0.693,0.145-1.746-0.107-2.674,0.054l-0.017-0.232
	c-4.628,0.949-9.206,0.017-13.845,0.826c-0.137,0.057-0.08,0.193-0.069,0.334c1.339,0.325,2.926,0.819,4.101,0.826
	c0.355,0.351,0.979,0.54,1.543,0.545c-0.779,0.902-1.709,1.676-2.896,2.139c-2.015,0.712-4.355,2.104-6.646,1.614
	c-0.113,0.385-0.911,0.396-0.409,0.829l0.731,0.369c-2.002,0.24-4.912,2.191-7.145,1.228c-0.249,0.441-0.65,0.095-1.027,0.075
	c-6.871,1.114-14.219-1.072-20.887-2.321l-5.178-1.406c2.039-0.384,4.316-2.007,6.057-3.262c-0.084-0.511-0.775-0.319-1.163-0.479
	c-7.751-1.921-15.435-5.492-22.917-8.232c-0.053,0.567,1.014,1.007,1.555,1.343c-0.748,0.054-1.81-0.338-2.568-1.08
	c0.635-1.597-1.718-1.002-2.484-1.838c-1.591-1.199-3.507-2.984-5.668-3.625c-0.85,0.578-1.412-0.038-2.493-0.053
	c-2.832-2.094-6.656-1.72-9.879-2.752c-2.543-1.364-2.104-4.355-3.657-6.31c0.195-1.188-1.186-2.074-0.33-3.217
	c-1.4-2.435-1.091-5.274-2.818-7.686c-0.704,0.005,0.115,0.932-0.597,0.843c-3.38-5.107-4.365-12.129-5.49-17.872
	c-0.995-0.115-0.744-1.167-1.695-1.332c-1.629-3.638-2.659-8.073-5.032-11.61c-0.119-0.979-0.94-1.294-1.059-2.271
	c-0.65-1.173-1.617-2.183-1.812-3.578l-0.588-0.332c-0.952-2.093-3.335-3.844-3.304-6.617c-0.491-0.293-0.73,0.288-0.887,0.723
	l0.076,1.027C41.926,126.622,41.515,124.867,42.552,124.274z"/>
<path fill="#FFFFFF" d="M46.093,116.827c-0.879-2.378,1.479-3.538,3.026-4.872c0.857-0.486,1.949-0.331,2.587,0.045
	c-2.429,0.836-4.691,3.303-4.97,5.907c-0.697,0.756-2.076,0.528-2.862,1.337c-0.879-0.451-0.626,1.08-1.417,0.527
	C43.531,119.035,45.402,118.287,46.093,116.827z"/>
<path fill="#FFFFFF" d="M46.229,134.058l0.024,0.327c0.241,0.077-0.548-0.43-0.199-0.784l-0.25-0.217
	C46.083,133.364,46.255,133.774,46.229,134.058z"/>
<path fill="#FFFFFF" d="M46.062,121.527c1.679-0.17,3.508-0.21,5.011,0.432c1.917,0.518,4.619,1.493,5.94,2.854
	c-1.595,0.68-0.124,3.438-1.774,4.64l-0.023-1.597l0.15,0.131c0.724-0.383,0.235-1.286,0.615-1.878
	c-0.229-0.547-0.912-0.262-1.239-0.238c-1.393,0.854-0.656,2.585-1.512,3.729c-0.661-0.045-1.126-0.622-1.671-1.005
	c-1.726-1.753-3.742-3.625-5.691-5.22C46.101,122.698,45.733,122.162,46.062,121.527z"/>
<path fill="#FFFFFF" d="M46.93,135.933c0.867,1.581,2.148,3.037,2.486,5.079c-0.624,0.469,0.16,1.539,0.281,1.906
	c-0.695-0.514-0.204-1.489-1.082-1.941C48.205,139.222,47.384,137.638,46.93,135.933z"/>
<path fill="#FFFFFF" d="M46.561,111.016l2.009-0.148c-0.964,0.306-1.87,1.406-2.67,2.028
	C45.992,112.23,45.933,111.437,46.561,111.016z"/>
<path fill="#FFFFFF" d="M50.065,143.454c0.657,1.925,1.689,3.822,2.11,5.718c-0.541-1.604-1.629-3.639-2.24-5.566L50.065,143.454z"
	/>
<path fill="#FFFFFF" d="M54.352,112.84c-0.088-0.558,1.03-0.687,0.245-1.146l-0.788,0.152c3.827-2.912,10.004-3.881,14.637-2.2
	c0.071,0.323-0.079,0.851,0.392,0.863c5.668-1.495,11.933-1.907,17.568-0.019c1.088,0.108,0.376,1.288,1.065,1.707
	c1.017,2.979,2.353,5.841,3.554,8.76c-0.979-0.539-1.666-1.569-2.659-2.296c-0.955-0.212-1.506-0.688-2.123-1.395
	c-1.685-1.85-4.442-3.573-7.002-3.245c-3.343,0.527-6.219,1.678-9.375,2.849c-0.621,1.783-1.824,2.67-2.732,4.38
	c-0.309,0.916-0.753,2.546-0.938,3.875c0.378,0.677,0.928-0.163,1.331-0.427c0.943-0.586,0.204-1.707,0.811-2.408
	c0.947-0.539,0.623-2.396,2.025-1.84c3.098-1.965,5.499-3.175,9.177-3.632l0.25,0.217c0.57-0.559,1.602,0.07,2.252-0.024
	c0.502,0.433,1.087,0.719,1.545,1.202c0,1.926-2.316,0.451-3.633,1.064c-1.186-0.148-2.201,1.384-3.65,0.832
	c-1.25,0.89-3.919,1.648-3.328,3.954c1.404,1.213,2.567-1.503,4.011-1.045c0.314,0.447-0.366,0.778-0.378,1.249l-3.089,2.716
	c-0.448-0.343-1.002-0.208-1.449,0.106c-0.277,0.066-0.182,0.718-0.537,0.368c-0.289-0.73-1.394-1.072-1.596-1.903
	c-0.837,0.108-2.643-1.45-2.89,0.306c-0.978,0.119-1.768,0.882-2.126,1.753l0.048,0.654c-0.892,0.019-1.403-0.555-2.005-1.074
	c-0.761-2.058-3.509-2.373-3.867-4.696c-0.27-1.108-1.548-2.518-2.793-2.849l-0.265-0.404c1.795-0.507,3.164-2.345,5.338-1.519
	c1.299-1.504,3.582-1.765,5.484-2.093l-0.024-0.326c-1.903-0.33-3.612,0.076-5.406,0.583c-0.251-0.216-0.339-0.773-0.803-0.692
	c1.505-1.896,4.167-2.749,6.448-2.398l0.31-0.258c-0.663-1.36-2.462-0.899-3.633-0.86c-1.274,0.562-2.501,1.122-3.608,2.049
	c-3.104-0.054-5.619,1.539-7.979,3.31l-0.679-0.279c0.923-0.866,2.1-2.127,3.465-2.086c1.847-3.001,5.534-3.976,8.898-4.223
	c1.329,0.185,2.765,0.55,3.99,0.601c-2.982-2.225-7.867-1.584-11.029,0.15c-1.321,0.566-2.168,2.461-3.624,2.474
	c-1.544,0.724-2.439,2.621-4.135,2.558l-0.299,0.398l-0.104-0.134l-0.526,0.508C49.117,114.492,51.717,112.799,54.352,112.84z"/>
<path d="M52.244,68.694c-2.34,3.977-5.611,7.411-5.783,12.121c-0.267,0.208-0.691,0.191-0.905-0.168
	C45.771,75.888,48.945,71.756,52.244,68.694z"/>
<path d="M53.49,74.805c-1.893,3.661-4.991,6.896-5.293,11.099l-0.53,0.461c-0.564-1.932,0.327-3.876,1.188-5.583
	C49.966,78.633,51.724,76.343,53.49,74.805z"/>
<path fill="#FFFFFF" d="M52.303,149.632c0.613,1.318,0.969,2.324,1.719,3.585c-0.463,0.738,0.585,0.944,0.497,1.655
	c0.399,0.957,0.304,2.233,1.193,2.825c1.275,3.289,2.103,6.893,3.32,10.044l-0.303,0.352c-0.429-2.646-1.524-4.774-2.327-7.393
	c-0.778-0.366-0.035-1.125-0.807-1.397C54.658,156.13,53.43,152.838,52.303,149.632z"/>
<path d="M49.011,25.854c3.912-1.743,8.723-3.41,12.722-3.328c-5.635,1.306-10.885,3.381-16.155,5.835
	C46.279,27.04,47.744,26.511,49.011,25.854z"/>
<path fill="#FFFFFF" d="M59.108,114.934c0.254,0.264,0.102,0.744,0.309,1.012c-1.293,0.94-2.984,1.581-4.053,3.021
	c-0.668-0.14-0.794-1.211-1.524-0.922l-0.501-0.433C55.019,116.173,57.173,115.452,59.108,114.934z"/>
<path fill="#FFFFFF" d="M55.029,82.35c0.312,2.325-1.758,4.215-3.524,5.754C52.439,86.109,53.647,84,55.029,82.35z"/>
<path fill="#FFFFFF" d="M56.982,133.364c-0.102-0.744-1.007-1.571-0.264-2.33c1.393-0.854,0.656-2.585,1.512-3.728l0.134-1.373
	c0.756,0.697,1.834,0.665,2.376,1.658c-0.265,0.865-0.032,2.117-1.083,2.522c0.297,2.139,0.156,3.418-0.25,5.562
	c-0.956-0.211-1.613,1.716-2.47,0.275l-0.615-0.707C56.879,135.156,57.458,134.081,56.982,133.364z"/>
<path fill="#FFFFFF" d="M59.186,169.844c0.434,0.157,0.249,0.828,0.326,1.245C59.568,170.568,59.311,170.259,59.186,169.844z"/>
<path fill="#FFFFFF" d="M60.415,175.721l-0.03-0.421L60.415,175.721z"/>
<path fill="#FFFFFF" d="M60.758,177.199l-0.041-0.561L60.758,177.199z"/>
<path fill="#FFFFFF" d="M60.859,177.285c0.479,2.689,1.224,5.172,1.837,7.758c0.612,0.659,1.43,0.929,1.588,1.81
	c-0.828-0.409-2.214-0.73-2.073-2.009C61.946,182.514,61.181,179.752,60.859,177.285z"/>
<path d="M62.833,147.17c0.311,0.399,0.938-0.022,1.076,0.578c0.319,5.004,3.172,9.961,0.834,14.596
	c0.031,2.347,0.128,4.312,0.375,6.408c-0.539,0.979,0.809,2.056-0.355,2.845c-2.502-6.581,2.266-13.32-2.892-18.955
	c-0.804-0.081-0.749,1.323-1.335,1.648C60.818,151.732,60.833,148.725,62.833,147.17z"/>
<path d="M62.133,80.561c0.437,1.471-0.271,3.354-0.672,4.934c-0.877,2.132-1.794,4.359-3.109,6.289l-0.561,0.041
	C59.537,88.079,61.256,84.617,62.133,80.561z"/>
<path fill="#FFFFFF" d="M61.895,132.44c0.464-0.081,0.412,0.487,0.799,0.646c-0.065,1.038-0.3,2.323-0.401,3.506
	c-0.784,0.198-0.252-0.875-0.333-1.339L61.895,132.44z"/>
<path d="M63.472,118.701l1.215-0.089c-0.369,0.732-1.333,1.037-1.997,1.603c-0.594,0.231-0.838,1.377-1.524,1.005
	C61.214,119.947,62.578,119.33,63.472,118.701z"/>
<path d="M56.995,25.833l2.243-0.164c0.255,0.921-0.998,0.495-1.384,0.993l-2.149,0.157C55.804,26.248,56.545,26.101,56.995,25.833z"
	/>
<path fill="#FFFFFF" d="M62.54,47.646c0.869,2.238-0.709,4.421-1.808,6.099C61.142,51.647,62.464,49.812,62.54,47.646z"/>
<path d="M64.958,58.838c-1.037-4.528,2.268-8.152,2.25-12.238c-1.521-0.875,0.246-2.414-0.574-3.34
	c-0.537,0.368-1.243,0.983-2.004,0.851c-0.318-0.492,0.476-0.551,0.392-1.062c-0.081-1.732,0.873-2.836,0.903-4.342
	c0.589-0.936,0.805-1.844,1.39-2.825c0.125,2.34,0.018,4.085-0.185,6.448c0.444,0.297-0.035,0.802,0.503,1.091
	c0.924-0.209,0.199-2.41,1.593-1.338c0.521,1.982-0.32,3.97,0.014,5.965c-1.596,3.218-3.132,6.619-2.858,10.356
	c-1.689,1.956-2.3,3.879-4.718,4.855C62.529,61.6,63.852,60.422,64.958,58.838z"/>
<path d="M67.964,138.338c-1.382-1.543,1.114-2.103-0.264-3.599c0.172-0.858,0.575-1.78,1.377-2.355
	c0.331,0.022,0.877-0.205,0.912,0.262l-0.052,0.568l-0.018-0.234c-0.667-0.139-0.973,0.822-1.262,1.361
	c-0.355,0.918,0.167,1.632,0.958,2.185c0.548,3.624,3.64,6.075,2.515,9.963c-0.386-1.429-0.453-2.974-1.203-4.234l-0.216,0.251
	c0.09,1.872,1.089,4.618-0.192,6.356l-0.251-0.216c-0.19-3.229-0.047-7.044-1.049-9.837c-0.114-0.273,0.292-0.49-0.051-0.701
	c-1.377,1.088-0.669,3.057-1.127,4.499C67.342,141.39,67.441,139.55,67.964,138.338z"/>
<path d="M63.327,41.716c-0.289,0.539-0.756,0.573-1.277,0.517l-0.247-0.169C62.028,41.294,63.017,41.974,63.327,41.716z"/>
<path d="M67.175,103.21c0.798-0.013,1.644,0.631,2.419,0.949c1.643,0.632,3.559,0.491,5.286,0.975
	c-2.579,0.707-5.621,0.225-7.681-1.598L67.175,103.21z"/>
<path d="M70.251,113.131l3.184-0.139c-1.437,0.903-2.933,1.013-4.404,1.449C68.366,113.691,69.75,113.356,70.251,113.131z"/>
<path d="M72.453,110.479c3.067-0.459,6.231-0.221,8.92,0.567c-3.651,0.174-8.195-0.291-11.723,1.564
	c-0.281,0.021-0.896-0.028-1.022-0.488C69.479,110.933,71.154,110.716,72.453,110.479z"/>
<path d="M73.472,149.396c0.02,0.28,0.134,0.555-0.136,0.715l-0.566-1.321C73.083,148.579,73.271,149.223,73.472,149.396z"/>
<path fill="#FFFFFF" d="M85.12,108.33c0.091,0.604,0.863,0.876,0.907,1.483c-4.496-1.737-9.48-1.795-14.509-1.19
	C75.904,106.938,80.742,107.57,85.12,108.33z"/>
<path d="M75.32,45.113c3.875-3.526,7.2-7.527,12.696-8.165c0.293-0.491,0.708,0.041,1.108-0.27c3.186-0.75,6.157-2.519,9.356-1.813
	c2.445,0.667,4.463,0.002,6.671,0.639c0.618,0.096,1.636-0.119,2.284,0.397l-1.09,0.502c0.311,0.4,0.862,0.876,1.43,0.929
	l0.217-0.251c-0.381-0.065-0.653-0.562-0.393-0.863c0.266-0.208,0.526-0.509,0.957-0.399c2.104,2.43,3.725,5.317,4.386,8.558
	c1.608,2.09,3.278,4.364,4.442,6.768c-0.124,0.244-0.657,0.659-0.925,0.209c-1.655-2.087-3.239-4.461-4.856-6.644
	c0.126,1.071,0.633,2.866-0.039,3.948c-0.705,7.053-4.335,13.284-6.108,19.85c-0.946,1.197-1.795,2.434-3.049,3.277
	c-0.235,0.628-0.699,0.709-1.132,1.211c0.811,0.175,1.383-0.995,2.051-0.855l0.98-0.73c1.406-2.593,4.326-5.061,5.049-8.026
	c1.927-3.195,2.25-7.118,4.675-9.926c0.767,0.836-0.304,2.277,0.738,2.389c-0.173,3.395-1.483,6.028-0.983,9.655
	c0.17,1.679-1.273,2.489-1.828,3.893c3.079-0.931,4.465-4.461,5.541-7.077c0.229-2.647,1.23-4.365,0.932-7.162
	c-0.418-0.58-0.517-1.278-0.709-1.968c1.119-0.129,1.012,1.616,2.239,1.058c1.362,1.92,3.353,4.076,2.97,6.547
	c0.317,0.493,0.053,1.358-0.188,1.939c-0.574,1.123-1.713,1.629-2.451,2.435c-1.205,0.229-0.981,1.998-2.44,1.964
	c-1.815,2.153-5.215,3.201-7.511,5.201c-2.875,3.733-6.85,2.053-10.793,3.374c-4.426-0.146-8.426,1.04-13.154,0.636l-0.251-0.217
	c-2.189,0.255-4.658,0.529-6.646-0.312l-0.216,0.251c-1.521-0.875-3.527-1.339-4.639-3.043c-0.385-0.771-0.624-1.457-1.362-1.92
	c0.022-0.987-0.818-2.195-1.26-3.103c-1.512-3.317-2.26-7.115-3.912-10.423C67.953,52.276,71.755,49.038,75.32,45.113z"/>
<path fill="#FFFFFF" d="M73.691,130.589c0.292,0.777,1.192,0.242,1.8,0.198c1.968-0.709,2.304-3.176,3.182-4.65
	c-0.052-1.358,1.132-1.867,0.875-3.446c-0.005-0.704,0.537-0.368,0.923-0.866l0.25,0.217l0.133-0.104
	c0.436,0.813-0.563,1.92-0.582,2.955c-0.038,0.754-0.21,1.612-0.069,2.26c-0.773,0.996-2.434,1.4-2.271,2.985
	c1.504,0.642,2.296-0.732,3.416-1.472c1.169-1.354,0.415-3.319,1.423-4.943c0.03-0.236,0.46-0.127,0.644-0.188
	c0.338,0.773,0.463,1.188,0.147,2.01l1.437,4.216l1,0.819l-0.935,0.068c-0.175-0.457,0.017-1.692-0.871-1.628
	c-0.508,1.4-0.222,2.742,0.147,3.937c1.493,0.5,2.747-0.343,4.493-0.236c1.125,0.622,3.341-1.842,3.586,0.865
	c0.643,0.423,1.25,1.036,2.084,0.881c0.34,0.773-0.365,0.778-0.822,0.952c-0.255,1.006-1.684,1.393-1.313,2.586
	c-0.181,1.376-0.79,2.689,0.731,3.563c0.992-1.199,0.872-2.835,2.072-3.768c0.971,0.444,1.609,2.089,2.647,2.154
	c1.099,0.248,0.731,1.637,1.823,1.792c-0.18,0.766,0.016,1.503,0.49,2.219c0.636,0.33,1.023,1.146,1.402,1.824
	c0.824,1.63,2.326,3.54,3.291,5.161c0.211,0.313,0.821,0.315,0.636,0.986c0.61,0.003,0.353,0.961,1.083,0.673
	c-1.023,0.779,0.359,2.98-1.624,2.843c-0.681-0.325-1.387,0.948-1.699-0.109c-0.181-3.745-2.686-6.521-4.653-9.665
	c-1.399-1.776-4.108-0.921-6.01-0.594c-1.778,0.741-4.196,0.448-4.976,2.619c0.151,0.788,0.783,1.071,0.935,1.858l-3.047,2.008
	c-0.896-0.686-0.263-1.672-1.163-2.404c-0.455-0.437-0.813-1.491-1.685-1.191c-0.68,0.331-0.251,1.051-0.548,1.496
	c-0.637,0.281-1.13,0.6-1.798,0.461c-0.267,0.207-0.196,0.53-0.513,0.694c-0.643-1.079-0.745-2.481-1.251-3.619
	c0.837-0.108,1.351-0.804,2.185-0.959c0.206,0.878,1.247,0.989,1.122,1.845c0.471,0.012,0.807-0.529,1.063-0.877l-0.166-0.975
	c-0.621-0.143,0.2-0.484,0.035-0.801c0.36-0.215,0.07-0.334-0.042-0.561c1.219-0.043,2.999,0.531,4.148,0.823
	c0.458-0.174,1.423,0.836,1.675-0.217c-0.145-0.694,0.015-1.082-0.443-1.564c-0.775-0.319-1.29-0.939-2.231-0.965
	c-1.354,0.758-3.139-0.521-4.597,0.103c-0.907,0.442-2.097-0.41-3.002-0.578c-0.263,0.253-0.834,0.154-1.111,0.222
	C76.009,138.5,75.133,134.242,73.691,130.589z"/>
<path d="M72.624,101.918c2.448,0.713,5.14,1.55,8.004,1.526c-1.113,0.834-2.469,0.275-3.915,0.429
	c-1.396-0.462-2.898-0.445-4.059-1.535L72.624,101.918z"/>
<path d="M82.221,32.862l-0.726,0.993c-3.221,2.209-6.377,4.648-9.833,6.217C74.921,37.109,78.465,34.829,82.221,32.862z"/>
<path fill="#FFFFFF" d="M96.378,197.231c3.001,1.847,6.496,2.108,9.627,3.804c-0.457,0.175-0.964,0.306-1.26,0.751l0.455,0.437
	c1.375,0.181,2.15-0.769,3.398,0.22c-0.807,0.529-1.986,0.476-2.732,1.188c1.852,0.897,3.561-0.777,5.081,0.098
	c-0.943,0.586-2.05,1.512-3.386,1.233c-4.041-1.301-8.051-2.791-11.942-4.62l0.083-0.147c-2.15-0.499-4.125-1.812-5.953-3.04
	c-1.931-0.704-3.628-1.425-5.626-2.405C88.32,194.957,92.254,196.078,96.378,197.231z"/>
<path d="M86.244,100.591c3.556,0.444,7.141,1.92,9.605,4.792c1.233,0.803,2.943,1.054,4.213,1.712
	c-2.227,0.398-4.694-0.597-5.953-2.383l-0.041-0.561c-3.862-2.065-8.545-3.789-12.91-2.437
	C81.823,99.882,84.695,100.61,86.244,100.591z"/>
<path fill="#FFFFFF" d="M85.335,120.247c3.357,0.928,4.917,3.633,5.901,6.803c-0.121,0.9,0.457,1.751,0.662,2.628
	c-1.656,1.108-3.747,0.792-5.256,0.715L85.501,127C85.768,124.865,86.244,122.389,85.335,120.247z"/>
<path d="M90.83,165.741c0.36-0.214,0.628,0.235,0.695,0.513c-0.359,0.214-0.072,0.944-0.596,0.842
	C90.275,167.144,90.386,166.102,90.83,165.741z"/>
<polygon fill="#FFFFFF" points="94.605,171.101 94.197,170.661 94.431,170.644 "/>
<path fill="#FFFFFF" d="M97.65,160.731c0.289-0.538,0.857-0.485,1.238-0.42c0.24,0.076,0.378,0.678,0.771,0.272l2.138,0.971
	c-1.372,1.792-1.352,3.997-2.048,6.021c-0.145-0.035-0.367,0.121-0.479-0.105c-0.119,0.291-0.195,0.532-0.52,0.603
	c-1.602-0.07-3.049-0.575-3.938-1.826c0.757-0.571-1.118-1.797,0.256-2.273C95.548,162.811,96.988,161.954,97.65,160.731z"/>
<path fill="#FFFFFF" d="M97.765,155.884l0.988,0.021c-1.234,0.467-2.764,0.767-3.436,1.85c-0.229,0.721,0.223,1.111,0.543,1.651
	l-1.049,1.063c0.168-0.905-0.554-1.792-0.521-2.64C95.353,156.953,96.534,156.397,97.765,155.884z"/>
<path fill="#FFFFFF" d="M96.34,125.547c0.239,1.346,1.112,2.362,1.719,3.585C97.69,127.938,95.135,127.045,96.34,125.547z"/>
<path fill="#FFFFFF" d="M100.21,127.706c2.654,0.98,1.446,4.357,2.15,6.279c0.199,0.783,0.804,1.35,1.362,1.92
	c-0.522,0.555-1.284,0.423-1.694,1.251c0.164,0.317-0.447-0.343-0.7,0.052l1.138,1.419c-1.314,0.003-1.018-1.709-2.08-2.102
	c-0.525-2.687-0.654-5.073-0.996-7.819L100.21,127.706z"/>
<path d="M103.332,172.247c0.32-0.118,0.146-0.574,0.531-0.463c0.109,0.229,0.044,0.608,0.421,0.628
	c2.59,1.36,2.796,4.822,2.578,7.609c-0.177,0.154-0.062,0.427-0.286,0.584c-0.555-2.448,0.137-5.177-2.006-6.852
	c-0.102,0.523-0.405,0.875-0.908,1.053l0.559,3.153C102.802,176.561,103.64,173.868,103.332,172.247z"/>
<path fill="#FFFFFF" d="M106.066,142.874c1.258-0.14,2.277,0.303,3.723,0.15c0.014,0.187,0.258,0.311,0.36,0.443
	c-1.458,1.892-2.466,4.173-3.483,6.314c-2.074-1.397-3.215-4.132-4.477-5.967C103.309,143.076,104.583,142.514,106.066,142.874z"/>
<path fill="#FFFFFF" d="M105.513,163.537c1.41-1.277,3.18-0.844,4.942-0.504c0.424,0.017,1.12,0.529,1.699,0.111l0.21-0.345
	c-0.584,2.298-0.589,4.788-1.416,6.963c-0.873,0.91-1.761,0.975-3.003,0.69c-0.545-0.383-1.146-0.902-1.841-0.758
	c-0.228-0.547-0.955-0.212-1.32-0.702C104.703,167.214,104.845,165.324,105.513,163.537z"/>
<path d="M107.511,164.518c-0.799,1.281-1.92,2.021-2.567,3.431C104.876,166.402,106.291,165.172,107.511,164.518z"/>
<path fill="#FFFFFF" d="M105.817,159.992c0.137-0.058,0.126-0.197,0.116-0.338c1.15-0.319,2.321-1.016,3.54-1.059
	c1.688-1.956,3.868-3.618,5.995-5.37c0.256-0.348,0.754-0.619,1.203-0.888c1.717-0.925,3.701-2.714,5.805-2.211
	c0.938-1.29,2.162,0.029,3.09-0.79l0.326-0.023c-0.037,0.143,0.201,0.173,0.258,0.31c0.176-0.153,0.41-0.171,0.537-0.368
	c0.164,0.317,0.523,0.103,0.561-0.041c0.904,0.169,2.042-0.338,2.766,0.549c1.039-0.546,2.897,0.445,3.28-1.368
	c0.518-1.917,0.681-4.184,2.271-5.568c0.547,2.967,1.25,6.157,2.35,8.988c0.928,1.107,2.197,2.423,2.765,3.744
	c-0.547,0.228,0.175,0.456,0.055,0.747c0.878,0.452,0.341,2.09,1.233,2.729c-1.479,0.343-2.727,0.623-3.996,1.232
	c-1.121-1.186-3.243-0.655-4.639-0.459c-0.735,0.853-1.719,1.535-2.662,2.122c-0.643-0.424-1.104-0.953-1.858-0.992
	c-0.131-0.507-1.009-0.302-1.302-0.468c-1.316,0.002-2.685,1.84-3.988,0.714l-4.166,0.212c-1,0.449-2.213-0.072-3.295-0.087
	c-1.074,0.078-2.426,0.224-3.491-0.214c-1.356,1.367-2.512-0.286-3.942,0.055c-1.369-0.089-2.682-0.697-3.914-0.842
	C105.129,160.23,105.425,159.785,105.817,159.992z"/>
<path d="M101.587,112.526c1.002,0.209,1.528,1.626,2.508,2.165l0.033,0.467c-1.066,0.173-1.814-1.041-2.383-1.751
	C101.859,113.022,101.474,112.91,101.587,112.526z"/>
<path fill="#FFFFFF" d="M103.322,128.512c0.953-1.103,1.225-2.532,2.686-3.108c0.24-1.851,1.779-0.084,2.717-0.106l1.029,0.583
	c0.624,2.115,0.749,4.455,1.824,6.302c0.294,0.167,0.691,0.466,1.045,0.159l0.293-0.492c-0.461-1.798-1.059-3.539-1.656-5.28
	l0.555-0.135c1.062-1.534,1.864-2.768,2.154-4.573c0.86-0.439,1.529-1.568,2.629-1.32c2.367,0.907,1.982,3.988,3.107,5.879
	c1.283,0.845,0.447,3.538,2.713,3.043c0.124,0.413,0.548,0.43,0.836,0.502l-2.479,1.45c-0.202,0.438-0.939,0.633-1.39,0.9
	c-1.316-0.655-2.688-0.132-4.075,0.157c-0.545,0.275-0.64,0.894-0.695,1.413c-1.287,1.034-2.653,3.53-4.456,2.019
	c-1.288,0.376-2.284-0.396-3.464,0.16c0.377,0.677,1.189,0.852,1.647,1.335l-1.785,1.917l-2.472-0.383
	c-0.078-1.075,1.785-0.648,1.412-1.889c0.478,0.105,0.67-0.472,0.836-0.767c-0.161-0.928-0.965-0.352-1.488-0.454
	c-0.877-1.063-1.264-2.492-1.424-4.03L103.322,128.512z"/>
<path d="M97.406,17c1.045,0.158,3.011-0.598,3.523,0.634l0.01,0.14c-1.506-0.03-3.402,1.002-4.84-0.021
	C96.259,17.365,96.849,17.087,97.406,17z"/>
<path d="M105.181,115.41c1.142,0.198,1.354,1.827,2.611,2.299l0.03,0.42C106.368,118.143,105.331,116.809,105.181,115.41z"/>
<path d="M108.397,79.801l0.374-0.027c-0.108,1.088-1.32,1.225-1.425,2.359c-0.671,0.472-1.106,0.927-1.845,1.121
	c-0.08-0.463-0.689-1.076-0.543-1.651C106.045,81.053,107.246,80.12,108.397,79.801z"/>
<path d="M114.972,202.869c0.33,0.022,0.553-0.136,0.723-0.383c5.742,0.144,10.381-0.666,16.15-1.418
	c3.354,0.882,5.422,0.261,8.943,0.237c-0.406,0.218-0.416,0.735-0.479,1.162l5.474-0.307l-0.216,0.251
	c0.264,0.404,0.972,0.445,0.793,1.21c-1.68,1.438-4.021,2.174-6.296,1.917c1.468-1.141,3.87-1.034,5.397-1.992
	c0.303-0.352,0.236-0.628,0.021-0.988c-2.996,0.783-6.459,1.602-9.109,1.983c-1.562-0.168-3.416,0.813-5.238,0.948l-3.138,0.135
	c2.745-0.999,5.565-0.971,8.2-2.197c-3.065-0.81-5.895-0.32-9.51-0.29c-2.683,0.572-5.387,2.133-8.147,2.288l3.259-1.695
	c-1.707-0.203-3.654,0.784-5.322-0.174l-2.539,0.608C113.938,203.509,114.98,203.62,114.972,202.869z"/>
<path fill="#FFFFFF" d="M112.966,165.246l0.141-0.011l0.162-2.267c1.1,0.248,2.544,0.096,3.863,0.14
	c-0.834,2.081-0.59,4.131-1.043,6.278c-0.751,0.665-1.467,1.798-2.572,1.456c-0.23,0.063-0.841,0.062-0.922-0.403
	C112.452,168.479,113.197,167.108,112.966,165.246z"/>
<path fill="#FFFFFF" d="M118.154,164.866c-0.902-2.048,1.682-1.392,2.529-2.018c0.976,0.492,2.012-0.758,2.752,0.362
	c-0.351,0.354,0.268,0.45,0.15,0.787c-1.022,2.706,0.472,5.791-2.697,7.432c-0.918-0.354-2.319-0.252-2.686-1.4l-0.725-0.275
	C117.638,168.099,117.167,166.159,118.154,164.866z"/>
<path d="M116.603,111.661c1.639,1.195,2.199,3.079,3.834,4.229c0.332,0.681-0.517,0.648-0.881,0.816
	c-0.152,0.48,0.039,1.171-0.461,1.396C119.705,115.521,116.728,114.001,116.603,111.661z"/>
<path d="M123.228,174.501c-0.034-0.468,0.068-0.992,0.471-1.256c0.441,0.249,1.127,0.621,0.801,1.303
	c-0.256,1.005,0.352,2.229-0.23,3.259c-0.347,0.4-0.385,1.156-1.047,1.11C123.594,177.574,124.589,175.764,123.228,174.501z"/>
<path d="M121.427,108.254c0.492-0.976,1.75-1.115,2.536-0.655c0.163,0.316,0.671,0.186,0.612,0.659
	c-0.755-0.038-1.729,0.127-2.178,1.052c-1.256,0.187-2.051,1.513-3.266,1.602l-0.331,1.246
	C116.97,109.614,120.251,109.515,121.427,108.254z"/>
<path fill="#FFFFFF" d="M121.527,120.508c0.438-1.066,0.896-2.509,2.037-2.968l1.132,0.058c1.604,2.654,3.164,5.358,4.222,8.24
	c-0.916,0.959-1.959,2.117-3.043,2.712l-3.265,0.335c-0.415-1.191-1.263-2.492-1.876-3.81
	C121.008,123.693,120.591,121.845,121.527,120.508z"/>
<path fill="#FFFFFF" d="M126.844,162.304c1.288-0.377,2.312,0.77,3.681,0.857c0.508,1.184-0.039,2.68-0.047,3.855l0.24,2.002
	c-1.775,0.13-2.515,2.862-4.449,2.111c-0.777-0.365-1.543-0.545-2.021-1.308C125.001,167.277,123.876,163.46,126.844,162.304z"/>
<path d="M123.173,102.583l0.26,0.356c-0.514,1.306,0.086,3.094-1.07,3.978c-0.346-0.867,0.133-2.03,0.201-3.021L123.173,102.583z"/>
<path d="M124.976,99.632c0.594-0.231,1.395-0.196,1.943,0.233c-0.539,0.321-1.455,0.013-1.517,1.098l-0.938,5.8l-0.2-0.173
	C124.424,104.276,123.916,101.823,124.976,99.632z"/>
<path d="M125.33,112.148c0.782,0.412,1.529,1.626,1.795,2.688l0.03,0.42l-0.233,0.018
	C126.375,114.233,125.603,113.303,125.33,112.148z"/>
<path d="M131.025,174.492c0.375-0.026,0.933-0.115,0.922,0.402c0.139,0.602,0.061,1.452-0.273,2.04
	c0.307,0.964,0.315,2.373-0.564,3.188c-0.176,0.155-0.332,0.588-0.543,0.275C132.214,178.54,129.517,176.342,131.025,174.492z"/>
<path d="M125.601,70.977c0.141-0.01,0.338,0.116,0.352,0.304c0.193,2.006-0.628,3.616-1.445,5.273l-0.194-0.08
	C125.06,74.492,124.998,72.994,125.601,70.977z"/>
<path fill="#FFFFFF" d="M131.99,163.289c1.536-1.476,3.091-2.06,5.087-1.736c0.048,0.654,0.735,0.417,1.048,0.816
	c0.552,3.061,1.109,6.824-1.195,9.342c-1.439-0.411-3.857-1.361-4.733-3.035C132.214,166.983,131.91,164.751,131.99,163.289z"/>
<path fill="#FFFFFF" d="M129.66,114.181c2.051-1.514,2.681,1.964,4.148,2.749c1.276,1.409,1.968,3.145,3.154,4.607
	c-1.072,0.736-2.412,2.338-3.865,3.008c-0.422,0.642-1.451,0.718-2.178,1.053c-0.121-0.368-0.199-0.784-0.713-0.747l-1.438-2.947
	C128.205,119.312,129.324,116.647,129.66,114.181z"/>
<path d="M128.007,68.546c0.039,3.098-0.58,6.196-1.252,9.205L128.007,68.546z"/>
<path d="M128.672,96.213c1.412,0.038,1.666,2.228,2.499,3.341c1.11-0.881-0.035-2.394,0.211-3.539
	c0.615,0.707,0.664,2.018,1.482,2.288c0.615,0.705-0.799,2.548-0.486,3.605c0.913-0.35,1.914-0.799,2.849-0.866
	c-0.298,1.713-2.183,2.273-3.649,2.757c-0.279-0.59-0.451,0.268-0.742,0.148l-0.941-0.025c-0.107-0.837-0.074-2.297,0.145-3.158
	C129.552,99.249,128.591,97.676,128.672,96.213z"/>
<path d="M126.734,51.164c0.279-0.021,0.613,0.049,0.684,0.372c0.009,0.751,0.264,1.015-0.461,1.396
	c-0.492,0.317-0.602-0.52-0.719-0.84C126.458,51.889,126.328,51.381,126.734,51.164z"/>
<path d="M130.442,51.127c0.28-0.021,0.614,0.049,0.685,0.372c-0.848,1.895-2.059,3.956-3.912,4.938
	C127.11,54.377,129.32,52.478,130.442,51.127z"/>
<path d="M130.607,71.972c0.686-4.748,0.33-9.606,4.016-13.165c0.742-0.759,1.104-1.584,2.102-2.081
	c0.199-0.483,1.33-1.083,1.887-1.828c1.322-1.178,2.395-2.571,3.795-3.332l0.168,0.363c1.609-1.104,3.502-0.304,4.867,0.396
	c-0.04,1.365,1.533,2.33,0.602,3.714c0.082,1.121-0.151,3.065-0.242,4.387c-0.195,1.188,0.238,2.613,0.428,3.914l0.151,0.788
	l0.094-0.007c0.542,4.188,1.777,8.231,3.924,11.88c-0.319,0.774,0.669,2.722-1.026,2.659c-0.275,0.724-1.496,1.378-0.878,2.131
	c0.533-0.416,0.949-1.15,1.606-1.151c-0.436,2.381-2.74,3.63-3.641,5.435c1.219,0.615,2.031-0.478,3.059-1.211l0.232-0.018
	c-0.477,1.163-1.32,2.493-2.375,2.853c-2.271,1.059-2.745,4.194-5.764,3.381c-0.066,0.382,0.352,0.961-0.238,1.239
	c-1.322-0.091-2.574-0.516-3.674,0.504c-0.801-0.646-3.41,0.908-3.127-0.992c-2.054-0.46-3.033-2.926-4.48-4.087
	C127.96,83.3,131.457,77.171,130.607,71.972z"/>
<path d="M130.478,54.835l2.236-2.184l0.341,0.163c-1.126,2.572-2.712,4.662-4.343,6.755l-0.381-0.067
	C128.438,57.757,129.507,56.315,130.478,54.835z"/>
<path d="M131.771,93.638c1.927,0,3.775,1.508,4.609,3.278c0.946,0.73,2.359,1.425,3.385,1.303c-0.529-0.807-1.868-1.131-2.088-2.196
	c2.621,0.514,3.969,3.515,6.76,3.123c-0.684-0.983-2.504-1.461-3.02-2.739c1.146-0.364,1.891,0.802,2.878,0.823
	c1.361,1.263,3.585,1.476,4.715,2.803c0.181-0.107,0.409,0.439,0.726,0.275c-0.707,0.615-1.686,0.076-2.641-0.136
	c-0.314-0.446-0.781-0.412-1.17-0.571c0.379,0.676-0.338,1.151-1.039,1.203c-0.451-0.39-0.936-0.59-1.5-0.595L143,100.707
	c-2.607-0.325-5.401-0.638-7.325-2.518C136.199,95.709,132.966,95.194,131.771,93.638z"/>
<path d="M139.658,172.404l-0.031-0.421c0.27-0.16,1.117-0.13,1.303,0.469c0.318,0.492,0.365,1.147,0.551,1.744
	c-1.584,0.82-2.576,2.679-2.575,4.605l-0.243-0.124C137.814,176.109,141.438,174.904,139.658,172.404z"/>
<path fill="#FFFFFF" d="M142.9,160.892c1.306-0.143,3.087-0.837,4.008,0.835c0.39,2.742,0.732,6.146-0.885,8.426
	c-0.428,0.595-0.756,1.229-1.086,1.864c-0.273-0.543-0.734,0.242-1.139-0.151c-1.562-0.825-3.516-2.467-3.926-4.222
	c0.482-1.116-0.271-2.423-0.138-3.796c0.085-0.757-0.954-1.48-0.147-2.01C140.808,161.186,141.716,161.401,142.9,160.892z"/>
<path fill="#FFFFFF" d="M137.917,110.192c2.702-0.949,3.951,3.28,6.473,3.707c0.806,0.739,0.979,1.808,1.467,2.711
	c-1.107,2.195-4.059,2.317-5.852,3.483c-0.928,0.161-1.477-0.269-2.504-0.193c-0.82-0.927-0.635-2.255-0.487-3.44
	C137.568,114.4,134.651,111.137,137.917,110.192z"/>
<path d="M137.686,100.627c0.611,1.928,2.623,3.096,4.33,3.957c0.44,0.249,1.052,0.252,1.327,0.796
	c0.061,0.841-1.217,0.699-0.672,1.739c-0.57-0.098-0.342-0.82-0.423-1.283c-1.921-1.222-5.364-2.051-5.013-4.941L137.686,100.627z"
	/>
<path fill="#FFFFFF" d="M138.106,87.771c0.475,0.059,0.399,0.956,1.063,1.049l0.27-0.818c-0.248-2.096-1.047-4.668-0.82-6.704
	c1.043-4.352-0.738-9.436,1.473-13.872c0.007,1.361-0.48,3.041,0.33,4.485c1.719-1.536,0.789-4.614,1.457-6.401
	c-0.756-1.965-2.107-3.746-2.262-5.849c-0.515-0.619,0.346-1.058,0.01-1.785l-1.454-1.256l3.896-3.902
	c-1.223,3.19,1.256,6.25,0.926,9.421c0.378,4.529-1.155,9.245-1.164,13.615c-0.109,0.431-0.381,1.202-0.203,1.706
	c-0.119,4.143,0.147,7.787,1.727,11.383c0.357,0.396,0.741,0.51,1.162,0.479c-1.782,0.037-4.104,2.979-5.684,0.651
	c0.119-0.29,0.506-0.789,0.018-1.035c-0.811-0.175-0.455,0.833-1.156,0.884C137.081,89.161,136.698,87.78,138.106,87.771z"/>
<path fill="#FFFFFF" d="M143.454,158.174c0.058,0.136,0.111,0.884-0.373,0.685C143.203,158.615,143.13,158.244,143.454,158.174z"/>
<path fill="#FFFFFF" d="M144.064,120.359l0.599,1.741c-1.044,0.499-2.724,1.938-3.389-0.081
	C141.722,121.095,143.165,120.895,144.064,120.359z"/>
<path d="M146.411,178.016c-0.123-1.682,1.923-1.973,2.44-3.232l0.475,0.06c0.289-0.538,0.285-1.242,0.189-1.893
	c1.04,0.723,0.009,2.677,1.889,2.68c0.066,0.277,0.465,0.576,0.157,0.882c-0.856,0.484-1.696-0.722-2.446-0.057
	c-1.547,1.335-3.322,2.734-2.691,4.942c-0.174,0.2-0.092,0.664-0.426,0.595C146.326,180.7,145.935,179.226,146.411,178.016z"/>
<path fill="#FFFFFF" d="M143.703,132.083c2.621,8.217,6.801,15.239,12.098,22.133c2.199,1.812,3.868,3.428,6.719,3.875
	c-0.494-0.339-0.876,0.864-1.414,0.573l-0.594-0.425c-2.337,0.171-4.918,1.487-6.97,0.416l-0.298-0.87l0.689-0.191
	c-0.838-1.818-2.016-3.799-3.051-5.742c-2.607-1.595-1.922-5.074-3.222-7.422c-0.737-3.657-2.05-7.46-4.595-10.139l-0.035-2.394
	L143.703,132.083z"/>
<path fill="#FFFFFF" d="M154.14,205.307c0.368-0.121,0.756,0.038,1.029-0.075c2.976-1.063,5.483-2.093,8.645-1.901
	c0.98,0.539,1.317-1.271,2.248-1.387c0.57-1.826,2.775-0.579,3.096-2.622c-0.484,1.068-2.205,2.604-3.09,3.984
	c-4.111,2.885-8.154,2.194-13.24,2.661c-0.363,0.168-0.867,0.346-1.436,0.293C152.24,205.635,153.392,205.973,154.14,205.307z"/>
<path fill="#FFFFFF" d="M148.392,160.818c1.611-0.447,3.293-0.57,4.953-0.363c0.26,0.356,0.434,0.156,0.695,0.513
	c-0.254,0.395,0.137,0.601,0.302,0.918c-1.196,2.906-1.244,6.104-2.842,8.664c-1.216-1.838-4.007-2.761-2.787-5.34L148.392,160.818z
	"/>
<path fill="#FFFFFF" d="M145.955,124.354l0.781-0.245c-0.693,0.803,0.791,0.552,0.667,1.407c-0.481,0.506-1.066-0.438-1.349,0.193
	c-0.572-0.099,0.039-0.755-0.166-0.976C146.023,124.632,145.964,124.495,145.955,124.354z"/>
<path fill="#FFFFFF" d="M146.328,107.65c0.607-0.044,1.037-0.593,1.752-0.457c1.012,0.349,0.911,1.53,1.613,2.137
	c1.832,1.933,4.473,3.337,5.084,5.922c-2.27,0.449-4.708,1.144-7.01,1.782c-0.973-1.103-1.127-2.548-1.98-3.941
	c0.537-1.638-0.429-2.646-0.412-4.339L146.328,107.65z"/>
<path fill="#FFFFFF" d="M143.409,77.423c0.563,1.274,1.43,2.854,1.21,4.327c-0.406-0.393-0.561-1.227-1.332-1.499L143.409,77.423z"
	/>
<path d="M154.033,173.041c0.176-0.153,0.413-0.124,0.646-0.141c0.913,0.919-0.115,2.263,1.008,2.839
	c0.013,0.187-0.168,0.294-0.061,0.474c-0.623,0.469-1.182-0.759-1.699-0.109c-0.031,0.847-0.826,0.905-1.155,1.54
	c-1.009,0.966-1.321,2.493-2.021,3.202C150.472,177.672,152.955,175.657,154.033,173.041z"/>
<path fill="#FFFFFF" d="M146.77,121.383c0.2-0.485,0.29-0.538,0.69-0.85c0.33,0.022,0.736-0.195,1.01-0.309
	c1.842-0.512,2.432,2.405,3.873,3.475c0.965,0.352,0.974,1.76,2.156,1.861c-0.361,0.214-0.354,0.309-0.754,0.619
	c-0.763-0.79-2.182,0.348-3.037,0.223c0.359-0.215,1.963-0.144,2.308-1.202c-0.36-1.713-2.181-0.264-3.085-0.432
	c-0.32,0.116-0.637,0.281-1.011,0.309c0.594-0.231,1.567-1.055,1.239-1.688c0.27-0.161,0.689-0.192,0.854-0.533
	c-0.18-1.161-1.471-0.831-2.209-1.294c-0.752,0.007-1.584,0.82-2.168-0.076l-0.013-0.188L146.77,121.383z"/>
<path fill="#FFFFFF" d="M144.149,73.423c1.062,1.66,1.478,3.509,1.766,5.508l-0.233,0.017l-0.99-2.604l-0.086,0.1
	c-1.123-0.574-0.799-1.914-0.773-2.855L144.149,73.423z"/>
<polygon fill="#FFFFFF" points="142.082,42.006 141.497,41.721 141.833,41.836 "/>
<path fill="#FFFFFF" d="M152.398,128.956c0.789,0.506,0.808,1.397,1.46,1.96l-0.173,0.201c0.512,0.573,0.443,1.564,1.131,1.983
	c-0.938,0.021-1.398,0.149-2.055,0.808c-1.025-0.534-1.826-0.57-2.885-0.915c-0.227-1.157-1.932-1.361-1.217-2.495
	C149.455,129.171,150.982,129.482,152.398,128.956z"/>
<path fill="#FFFFFF" d="M155.646,161.086c1.21-0.794,2.819-0.631,4.438-0.983c0.676,0.231,0.125,1.071,0.667,1.407l-2.263,7.589
	l-1.187,1.12c-1.24-0.896-2.16-1.909-3.05-3.159C154.575,165.062,155.335,163.269,155.646,161.086z"/>
<path fill="#FFFFFF" d="M153.105,117.441c-0.065,0.381-0.275,0.726-0.582,1.03c-0.373,0.026-0.955-0.213-0.852-0.737
	C152.111,117.327,152.751,117.749,153.105,117.441z"/>
<path d="M158.173,174.43c0.923,0.402,0.602-1.406,1.297-0.894c0.483-0.458-0.242-1.393,0.431-1.816
	c0.913,0.919,0.39,2.743,1.309,3.756c0.169,1.021,0.062,2.109-0.942,2.512l-0.328,0.024c0.303-1.01,0.133-2.03-0.578-2.776
	c-0.611-0.003-0.553,0.791-0.807,1.187c-2.629,0.662-0.845,3.209-1.67,4.773C157.332,178.953,155.419,175.946,158.173,174.43z"/>
<path d="M151.97,95.54c1.402,1.822,3.49,2.75,5.234,4.126c0.352,0.303,0.065,0.888-0.355,0.919
	c-2.428-0.434-3.757-3.201-5.433-4.911C151.496,95.48,151.787,95.601,151.97,95.54z"/>
<path fill="#FFFFFF" d="M155.717,134.491c-0.438-0.203-0.774,0.339-1.349,0.192C154.646,134.617,155.687,134.07,155.717,134.491z"/>
<path fill="#FFFFFF" d="M155.277,127.195c0.593-0.232,1.08-0.644,1.78-0.694c0.63,0.894-0.05,1.883,0.456,3.02l1.772,3.019
	c-0.771,0.384-2.002,0.897-2.763,0.766C155.091,131.719,153.107,128.998,155.277,127.195z"/>
<path d="M159.974,180.405l0.326-0.024c-0.055,0.521,0.296,0.823,0.24,1.345c-0.257,0.348-0.604,0.091-0.787,0.151
	C159.812,181.403,159.915,180.879,159.974,180.405z"/>
<path fill="#FFFFFF" d="M154.8,106.606c1.547-0.065,2.916-1.247,4.521-1.13c2.119,1.349,3.916,3.425,4.518,5.87
	c-0.115,0.995,0.463,1.845,0.205,2.804c-2.266,0.495-5.277,1.702-7.398,0.965l-2.005-3.001
	C154.921,110.168,154.294,108.663,154.8,106.606z"/>
<path fill="#FFFFFF" d="M156.238,121.723c0.012-0.472-0.108-0.838-0.409-1.098c-0.091,0.053-0.13,0.15-0.227,0.109
	c-0.423-0.626,0.097-1.228,0.196-1.799l1.496-0.109c-0.003,0.611,0.474,0.06,0.777,0.365c0.914,0.92,1.5,1.863,2.442,2.547
	l0.082,1.121c-1.575-0.965-3.366,1.515-4.731-0.452l-0.38-0.066C155.916,122.45,156.261,122.05,156.238,121.723z"/>
<path fill="#FFFFFF" d="M162.578,160.154l2.402-0.552c0.273,0.544,0.607-0.045,0.934-0.068c-0.035,2.728-0.387,5.619-1.09,8.207
	l-2.095,2.174c-0.917-0.967-1.304-2.395-2.093-3.558C161.186,164.25,161.443,161.976,162.578,160.154z"/>
<path fill="#FFFFFF" d="M160.065,124.589c0.567,1.979,3.032,2.268,3.448,4.116c-1.004,0.402-0.965,1.573-1.617,2.279
	c-0.068,0.334,0.092,0.604,0.385,0.771c-0.326,0.023-1.963,0.144-2.604-0.278c-1.598-1.292-0.404-3.588-0.931-5.005
	C158.875,125.662,159.548,125.237,160.065,124.589z"/>
<polygon fill="#FFFFFF" points="159.751,134.431 159.433,134.548 159.66,134.438 "/>
<path fill="#FFFFFF" d="M156.49,87.975c0.463,1.187,0.847,3.226,1.006,4.765c-0.688-0.42-1.113-1.094-1.275-2.021
	C156.039,89.51,156.234,88.979,156.49,87.975z"/>
<path fill="#FFFFFF" d="M162.068,133.321c-0.34,0.495-1.034,0.64-1.531,0.91C160.759,133.417,161.159,133.106,162.068,133.321z"/>
<path fill="#FFFFFF" d="M157.572,93.767l-0.034-0.467L157.572,93.767z"/>
<path fill="#FFFFFF" d="M162.908,118.509c0.067,0.276,0.318,0.493,0.252,0.874c-0.769-0.226-2.229,0.352-2.384-0.483
	c0.249-0.441-0.065-0.888-0.326-1.244C161.419,117.443,162.089,118.239,162.908,118.509z"/>
<path fill="#FFFFFF" d="M161.595,123.679c0.084-0.147,0.317-0.164,0.396-0.357c0.483,1.467,2.188,2.282,2.444,3.859
	c-1.239-0.237-2.396-1.28-3.219-2.253C161.096,124.56,161.296,124.076,161.595,123.679z"/>
<path fill="#FFFFFF" d="M166.773,162.29c0.152-1.14,0.294-2.418-0.025-3.568c0.543-0.275,0.843-0.673,1.438-0.246
	c0.489,2.829,0.754,5.159,0.609,8.317c-1.104,0.315-0.66,1.88-1.16,2.762c-0.211-0.313-0.615-0.706-0.502-1.091
	c-1.152-0.338-1.197-1.603-0.89-2.518C166.344,164.765,166.779,163.651,166.773,162.29z"/>
<path fill="#FFFFFF" d="M162.582,89.688l0.391-1.062c0.154,0.177,0.456,0.436,0.772,0.271c0.08-0.194,0.307-0.304,0.192-0.578
	c0.177,1.772,0.904,4.632,1.188,6.584c-1.546-1.859-3.42-3.085-4.553-5.068C161.167,88.336,161.83,90.965,162.582,89.688z"/>
<path fill="#FFFFFF" d="M166.516,129.283c0.558-0.088,1.022,0.489,1.894,0.19c-1.398,0.808-2.874,1.808-4.457,2.018l-0.247-0.17
	C164.461,130.092,165.777,130.747,166.516,129.283z"/>
<path fill="#FFFFFF" d="M164.405,120.982c2.205,1.248,2.953,5.045,6.303,3.954l0.187-0.013c0.088,0.557,0.43,1.377,0.037,1.781
	c-1.388-0.979-1.629,2.14-3.6,1.532c-1.24-0.896-1.955-2.957-3.418-3.695c-0.469-0.623-1.074-1.189-0.711-2.015
	C163.732,122.065,163.878,121.491,164.405,120.982z"/>
<path fill="#FFFFFF" d="M169.445,198.736l0.297-0.444L169.445,198.736z"/>
<polygon fill="#FFFFFF" points="163.941,115.943 163.391,116.124 163.841,115.856 "/>
<path fill="#FFFFFF" d="M168.708,180.986c-0.057,0.521-0.163,0.998-0.222,1.472C168.263,182.616,168.25,181.16,168.708,180.986z"/>
<path fill="#FFFFFF" d="M168.984,187.966c0.844,3.179,1.721,6.168,1.019,9.414C170.156,193.705,168.876,191.637,168.984,187.966z"/>
<polygon fill="#FFFFFF" points="165.107,127.367 164.763,127.157 164.849,127.058 "/>
<path fill="#FFFFFF" d="M166.796,116.438l0.299,0.871l3.752,3.765c1.078,0.626,1.483-0.907,2.539-0.608
	c-0.057-0.137-0.162,0.998,0.532,0.854c-0.198,1.142-0.558,2.014-1.604,2.466c-1.178-0.055-2.762-0.502-3.949-0.039
	c-1.091-1.424-1.895-2.773-3.342-3.937l-0.422-2.553C165.225,116.788,166.341,116.002,166.796,116.438z"/>
<path fill="#FFFFFF" d="M165.029,104.495c-0.057,0.521,0.541,0.336,0.835,0.503c1.046,0.158,0.741,1.776,1.847,2.119
	c0.457,1.752,0.955,4.064,1.434,6.096c-0.395,0.405,0.035,1.124-0.555,1.402c-1.109-0.388-2.482,0.746-2.56-0.938
	c-1.033-1.287-0.163-3.513-1.694-4.527C164.036,107.622,164.81,106.014,165.029,104.495z"/>
<path fill="#FFFFFF" d="M169.417,158.62c1.42,2.714,2.501,5.924,1.691,8.989c-0.357,0.872-0.41,1.439-0.629,2.301
	c-2.189-1.014-0.477-3.301-0.68-4.789C169.805,162.632,169.548,161.053,169.417,158.62z"/>
<path fill="#FFFFFF" d="M166.867,82.141c0.97,1.056,0.749,2.528,1.409,3.843c0.641,1.69,1.111,3.629,1.515,5.291
	c0.613,0.66,0.831,1.725,1.228,2.635l-0.134,0.104c-1.461-3.275-2.426-6.821-3.323-10.091l-0.087,0.1
	C166.922,83.546,166.908,82.7,166.867,82.141z"/>
<path fill="#FFFFFF" d="M169.382,106.854c0.781,0.412,1.281,1.456,1.934,2.02c0.564,1.932,1.251,3.619,1.643,5.751
	c-0.109,0.432-0.619,1.174-1.049,1.064c-0.462-0.531-1.076-0.579-1.539-1.109C171.013,111.809,169.461,109.854,169.382,106.854z"/>
<path fill="#FFFFFF" d="M173.321,117.652c0.474,0.059,1.198,0.335,1.683-0.124l0.285-0.585l-1.664-0.911
	c1.085-1.865,0.23-3.916-0.287-5.851c2.197,2.423,1.942,5.354,2.059,8.211c-0.458,0.174-1.012,0.309-1.168,0.743
	c0.215,0.36-0.235,0.628-0.502,0.835c0.039-0.097,0.219-0.203,0.162-0.341c-0.26-0.356-0.492,0.318-0.758-0.085l-0.531-0.854
	c-0.371,0.074-0.348,0.401-0.613,0.608c-0.504,0.178-1.4-0.508-1.678-1.099C171.73,118.379,171.98,116.012,173.321,117.652z"/>
<path fill="#FFFFFF" d="M172.835,98.849c-0.842-0.595-0.504-1.748-0.982-2.511C172.195,97.158,173.195,97.978,172.835,98.849z"/>
<path fill="#FFFFFF" d="M172.901,99.737c-0.077,0.24,0.238,0.688-0.183,0.718C173.075,100.194,172.401,99.962,172.901,99.737z"/>
</svg>
